# xmcd
#
# Track frame offsets:
#	150
#	23190
#	33540
#	56678
#	70290
#	97778
#	119828
#	135990
#	165578
#	192078
#	210215
#
# Disc length: 3042 seconds
#
# Revision: 1
# Processed by: cddbd v1.4PL0 Copyright (c) Steve Scherf et al.
# Submitted via: audiograbber 1.80.04
#
DISCID=900be00b
DTITLE=Neil Young - Heart Of Gold Live
DYEAR=1900
DGENRE=pop
TTITLE0=Rockin The Free World
TTITLE1=Needle And The Damage Done
TTITLE2=No More
TTITLE3=Comes A Time
TTITLE4=Sugar Mountain
TTITLE5=After The Goldrush
TTITLE6=Hear Of Gold
TTITLE7=Crime In The City
TTITLE8=Helpless
TTITLE9=My My Hey Hey
TTITLE10=Ohio
EXTD=
EXTT0=
EXTT1=
EXTT2=
EXTT3=
EXTT4=
EXTT5=
EXTT6=
EXTT7=
EXTT8=
EXTT9=
EXTT10=
PLAYORDER=
